<?xml version="1.0" standalone="no"?><!DOCTYPE svg PUBLIC "-//W3C//DTD SVG 1.1//EN" "http://www.w3.org/Graphics/SVG/1.1/DTD/svg11.dtd"><svg class="icon" width="200px" height="200.00px" viewBox="0 0 1024 1024" version="1.1" xmlns="http://www.w3.org/2000/svg"><path fill="#1afa29" d="M875.8784 619.9296V404.48c0-4.4032-0.8192-8.704-2.5088-12.9024l-9.8304-24.3712c0.1024-1.0752 0.1536-2.1504 0.1536-3.2256v-53.76a34.3808 34.3808 0 0 0 8.4992-20.6336l3.6352-59.6992c0.5632-9.8304-3.1232-19.5072-10.0864-26.4192l-45.4144-45.1072a34.7648 34.7648 0 0 0-26.1632-10.0352l-59.392 3.1232c-8.6016 0.4608-16.64 4.096-22.6816 10.24l-52.8384 0.5632-26.112-11.1616c-4.3008-1.8432-8.8576-2.7648-13.5168-2.7648H404.3776c-4.1472 0-8.192 0.7168-12.3904 2.304l-26.9824 10.3936-54.9888-0.1024-1.3312-1.1776a34.73408 34.73408 0 0 0-21.8624-8.6016l-58.9824-1.536c-9.2672-0.0512-18.432 3.3792-25.0368 9.8816l-44.3904 43.6224a34.33984 34.33984 0 0 0-10.2912 25.9584l2.3552 59.0848c0.3072 7.9872 3.3792 15.5648 8.704 21.504l0.1024 53.1968c0 2.048 0.2048 4.0448 0.512 5.9904l-9.216 23.04c-1.6384 4.096-2.4576 8.3968-2.4576 12.8v215.7056c0 4.2496 0.768 8.3968 2.304 12.4416l9.1136 23.6032c-0.3072 1.8432-0.4096 3.7376-0.4096 5.5808l0.512 53.1456a34.304 34.304 0 0 0-8.0896 20.2752l-3.3792 59.2896c-0.5632 9.8304 3.072 19.4048 9.984 26.3168l44.4928 44.6464a34.5088 34.5088 0 0 0 24.3712 10.1888h1.024l57.856-1.536c7.4752-0.2048 14.848-2.8672 20.6336-7.5264l3.2256-2.6112 55.0912-0.3584 26.2656 9.9328c3.84 1.4336 7.8848 2.1504 11.9808 2.1504h217.3952c3.7888 0 7.5264-0.6144 10.9056-1.792 14.2848-4.7616 23.04-8.0896 28.416-10.2912h53.1968a34.4064 34.4064 0 0 0 23.2448 10.0864l58.4192 1.9456h1.1264c8.96 0 17.4592-3.4304 23.9104-9.6768l44.8-43.264a34.47296 34.47296 0 0 0 10.4448-26.5216l-3.1232-61.184a34.60096 34.60096 0 0 0-8.2944-20.6848l0.5632-53.0432c0-1.6896-0.1024-3.3792-0.3072-5.0688l9.5744-23.6544c1.6384-4.1472 2.5088-8.448 2.5088-12.8512z m-61.696-5.2736l-13.9264 34.4576 1.3824 26.5728 0.6656 0.4096-0.3072 28.3136-2.2016 1.6896 1.3824 32.6656 9.6256 9.8304 1.9456 38.4512-27.5968 26.624-35.1744-1.1776-9.3184-10.5472h-87.6032l-7.7824-0.1024-6.9632 3.8912c-2.2528 1.1264-10.5472 4.3008-22.272 8.2944H408.064l-31.9488-12.0832H286.1056l-11.7248 10.8032-36.2496 0.9728-27.648-27.7504 2.0992-37.2224 9.8816-10.4448 1.024-34.1504-2.2528-1.4848-0.256-26.7776 1.9456-1.3312-0.8192-27.648-12.3392-31.8464V409.856l13.1072-32.7168v-30.1056l-1.9968-1.024-0.0512-23.7056 1.6384-1.024V286.72l-10.8032-11.3664-1.4336-36.7616 27.5456-27.0848 37.5296 0.9728 11.3152 9.984 89.8048 0.1536 33.024-12.7488h204.544l32.8704 14.08 92.416-0.9728 9.8304-10.6496 36.1984-1.8944 28.16 28.0064-2.2528 37.2224-9.984 10.24-1.7408 33.8944 2.4576 1.6384v32.1024l-0.9216 1.024v22.6816l13.1072 32.4608v204.9536zM448.1536 512.1024a61.9008 61.6448 90 1 0 123.2896 0 61.9008 61.6448 90 1 0-123.2896 0ZM253.696 287.6928c18.0736 0 32.7168-14.6944 32.7168-32.7168 0-18.0224-14.6944-32.7168-32.7168-32.7168-18.0224 0-32.7168 14.6944-32.7168 32.7168 0 18.0736 14.6432 32.7168 32.7168 32.7168z m0-44.8512c6.7072 0 12.1856 5.4784 12.1856 12.1856 0 6.7072-5.4784 12.1856-12.1856 12.1856s-12.1856-5.4784-12.1856-12.1856a12.1856 12.1856 0 0 1 12.1856-12.1856zM253.696 736.256c-18.0224 0-32.7168 14.6944-32.7168 32.7168s14.6944 32.7168 32.7168 32.7168c18.0736 0 32.7168-14.6944 32.7168-32.7168s-14.6944-32.7168-32.7168-32.7168z m0 44.9024c-6.7072 0-12.1856-5.4784-12.1856-12.1856s5.4784-12.1856 12.1856-12.1856 12.1856 5.4784 12.1856 12.1856-5.4784 12.1856-12.1856 12.1856zM770.304 287.6928c18.0224 0 32.7168-14.6944 32.7168-32.7168 0-18.0224-14.6944-32.7168-32.7168-32.7168s-32.7168 14.6944-32.7168 32.7168c0 18.0736 14.6944 32.7168 32.7168 32.7168z m0-44.8512c6.7072 0 12.1856 5.4784 12.1856 12.1856 0 6.7072-5.4784 12.1856-12.1856 12.1856s-12.1856-5.4784-12.1856-12.1856a12.1856 12.1856 0 0 1 12.1856-12.1856zM770.304 736.256c-18.0224 0-32.7168 14.6944-32.7168 32.7168s14.6944 32.7168 32.7168 32.7168 32.7168-14.6944 32.7168-32.7168-14.6432-32.7168-32.7168-32.7168z m0 44.9024c-6.7072 0-12.1856-5.4784-12.1856-12.1856s5.4784-12.1856 12.1856-12.1856 12.1856 5.4784 12.1856 12.1856-5.4784 12.1856-12.1856 12.1856zM487.0656 418.6624c7.3216-1.8432 15.0016-2.7648 22.9376-2.7648 13.056 0 25.6 2.56 37.0176 7.3216 4.096-8.6528 8.448-18.688 12.8512-30.6176 0.512-1.536 13.8752-42.9568 10.9056-62.8224v-0.1024c0-0.1024-1.2288-9.3696-7.3216-20.5824-7.936-15.0016-20.2752-26.0096-36.4032-32.9216 0 0-0.1024-0.1024-0.2048-0.1024-0.3072-0.2048-33.6384-17.8688-66.9184-21.1968-1.1264 0.1024-7.424 0.8192-9.984 5.0176-1.7408 2.7648-1.4336 6.912 0.7168 12.1344 1.6384 2.6624 21.7088 37.8368 30.0032 82.0224 0.4096 1.6896 6.912 30.208 6.4 64.6144zM510.0032 218.9312c-161.536 0-292.9664 131.4304-292.9664 292.9664s131.4304 292.9664 292.9664 292.9664 292.9664-131.4304 292.9664-292.9664-131.4304-292.9664-292.9664-292.9664z m221.44 432.9984c0.0512-0.768 0.1536-1.536-0.0512-2.3552-0.7168-3.1744-3.7888-5.9392-9.0624-8.0384-3.072-0.8192-42.1376-11.6224-79.2576-36.8128-1.4336-0.9216-26.2144-16.4352-50.176-41.216-10.5984 17.4592-26.5216 31.232-45.5168 39.2704 3.072 8.96 7.2192 19.2 12.544 30.72 0.7168 1.4336 20.5824 40.0896 36.7104 52.0192l0.1024 0.1024c0.1024 0 7.5264 5.7344 19.7632 9.472 16.128 4.8128 32.7168 3.9936 48.9472-2.56h0.2048c0.4096-0.2048 32.7168-10.0864 58.0608-29.0816-36.608 51.5072-91.3408 89.2416-154.8288 103.8848 0.3584-0.4096 0.8704-0.6656 1.1264-1.1776 1.7408-2.8672 1.536-6.912-0.7168-12.1344-1.536-2.6624-21.6064-37.9392-30.0032-82.0224-0.3072-1.6384-6.8096-30.1056-6.2464-64.5632-7.424 1.8432-15.104 2.7648-23.04 2.7648-13.056 0-25.6-2.56-37.0176-7.3216a371.456 371.456 0 0 0-12.8512 30.6176c-0.512 1.536-13.8752 42.8544-10.8032 62.8224 0 0 0.3072 2.4576 1.3312 6.144s2.8672 8.8576 5.8368 14.4896c8.0384 14.8992 20.2752 26.0096 36.4032 32.9216 0.1024 0 0.2048 0 0.3072 0.1024 0.3072 0.1024 29.44 15.5648 60.4672 20.3264a260.3776 260.3776 0 0 1-181.9648-35.84c0.5632 0 1.1264 0.1024 1.7408 0 3.2768-0.8192 5.9392-3.7888 8.1408-9.0624 0.7168-3.072 11.52-42.1376 36.8128-79.2576 0.8192-1.4336 16.3328-26.2144 41.1136-50.176a98.2016 98.2016 0 0 1-39.168-45.5168c-9.0624 3.072-19.2 7.2192-30.72 12.544-1.536 0.7168-40.192 20.48-52.1216 36.7104l-0.1024 0.1024s-5.7344 7.5264-9.472 19.6608c-4.8128 16.2304-3.9936 32.7168 2.56 49.0496 0 0 0 0.1024 0.1024 0.2048 0.1024 0.3072 9.7792 32.0512 28.416 57.344-51.8144-36.608-89.7536-91.4944-104.448-155.2384 0.6144 0.8704 1.3312 1.6896 2.304 2.2528 2.8672 1.7408 6.912 1.4336 12.1344-0.7168 2.6624-1.536 37.9392-21.6064 82.0224-30.0032 1.7408-0.4096 30.1056-6.912 64.6656-6.3488-1.8432-7.3216-2.7648-15.0016-2.7648-22.9376 0-13.056 2.56-25.6 7.3216-37.0176-8.6528-4.096-18.7904-8.448-30.72-12.8512-1.536-0.512-42.8544-13.8752-62.8224-10.9056 0 0-2.4576 0.3072-6.144 1.3312-3.6864 1.1264-8.8576 2.9696-14.4896 5.9392-14.8992 8.0384-26.0096 20.2752-32.8192 36.4032l-0.2048 0.2048c-0.1024 0.3072-16.5376 31.488-20.736 63.488a260.38272 260.38272 0 0 1 37.0176-188.9792c-0.7168 1.792-1.2288 3.7888-0.768 5.7856 0.8192 3.1744 3.8912 5.9392 9.1648 8.0384 2.9696 0.8192 42.0352 11.52 79.1552 36.8128 1.536 0.9216 26.2144 16.4352 50.2784 41.216 10.5984-17.4592 26.5216-31.3344 45.568-39.2704-3.1744-8.96-7.3216-19.2-12.6464-30.72-0.7168-1.4336-20.48-40.192-36.7104-52.0192v-0.1024c-0.1024 0-7.6288-5.7344-19.7632-9.472-16.2304-4.9152-32.7168-3.9936-48.9472 2.56h-0.3072c-0.3072 0.1024-35.7888 11.0592-61.6448 31.8976 47.1552-69.7344 126.976-115.6608 217.2928-115.6608 53.4528 0 103.168 16.128 144.6912 43.6736-2.048-1.2288-5.0688-2.56-8.1408-1.8432-3.1744 0.8192-5.8368 3.7888-8.0384 9.0624-0.8192 3.072-11.52 42.1376-36.8128 79.2576-0.9216 1.4336-16.4352 26.2144-41.216 50.176 17.4592 10.5984 31.232 26.5216 39.2704 45.5168 8.96-3.072 19.2-7.2192 30.72-12.544 1.4336-0.7168 40.192-20.48 52.1216-36.7104v-0.1024c0.1024 0 5.7344-7.5264 9.472-19.6608 4.9152-16.2304 4.096-32.7168-2.4576-49.0496-0.1024 0-0.1024-0.1024-0.1024-0.2048-0.1024-0.4096-11.2128-36.4032-32.3584-62.3104-0.1024-0.1024-0.4608-0.3584-0.768-0.5632 55.1424 37.2224 95.3344 94.8736 109.8752 161.9968-0.7168-1.3312-1.6384-2.6624-3.0208-3.4816-2.8672-1.7408-7.0144-1.536-12.1344 0.7168-2.7648 1.536-37.9392 21.6064-82.1248 30.0032-1.6384 0.4096-30.1056 6.912-64.5632 6.3488 1.8432 7.3216 2.7648 15.0016 2.7648 22.9376 0 13.056-2.56 25.6-7.3216 37.0176 8.6528 4.096 18.688 8.448 30.6176 12.8512 1.6384 0.512 42.9568 13.8752 62.8224 10.9056h0.1024c0.1024-0.1024 9.3696-1.3312 20.6848-7.3216 14.8992-8.0384 25.9072-20.2752 32.8192-36.4032 0-0.1024 0.1024-0.2048 0.1024-0.2048 0.2048-0.4096 17.1008-32.3072 20.8896-64.8704 2.7648 15.2064 4.3008 30.8736 4.3008 46.8992a261.33504 261.33504 0 0 1-40.7552 140.0832z"  /></svg>