<?xml version="1.0" standalone="no"?><!DOCTYPE svg PUBLIC "-//W3C//DTD SVG 1.1//EN" "http://www.w3.org/Graphics/SVG/1.1/DTD/svg11.dtd"><svg class="icon" width="200px" height="200.00px" viewBox="0 0 1024 1024" version="1.1" xmlns="http://www.w3.org/2000/svg"><path fill="#1afa29" d="M673.4 876.3c-7.6 8.1-15.2 16.1-22.7 24-6.9 7.3-16.6 8.9-25.3 4-1.7-1-3.3-2.3-4.7-3.7-8.9-8.9-17.9-17.7-26.8-26.6-6-6-8.4-13.1-5.4-21.1 1.2-3.2 3.3-6.1 5.8-8.6 7.2-7.4 14.8-14.5 22.2-21.8 1.1-1.1 1.3-1.8 0.6-3.3-4.2-9.5-8.2-19-12.2-28.5-0.7-1.8-1.6-2.4-3.5-2.3-10.2 0.1-20.4-0.3-30.6 0.2-10.5 0.5-18.3-7.4-20.9-15.8-0.8-2.8-1.3-5.9-1.3-8.8-0.2-12.5-0.1-24.9 0-37.4 0.1-9 3.6-16.3 11.3-21.3 2.9-1.9 6.1-2.6 9.6-2.6 10.7 0 21.5-0.1 32.2 0.1 1.8 0 2.6-0.6 3.3-2.2 3.3-8.4 6.8-16.7 10.3-25 0.8-1.8 1.8-3.6 2.7-5.5-0.5-0.5-0.9-1-1.4-1.4-7.4-7-14.9-14-22.3-21-9.2-8.7-9.6-21-0.7-30.1 8.9-9.1 17.9-18.2 27-27.2 8.9-8.9 20.8-8.8 29.5 0.3 7.3 7.5 14.6 14.9 21.9 22.5 1.1 1.1 1.8 1.4 3.3 0.6 9.5-4.2 19-8.2 28.5-12.2 1.8-0.7 2.4-1.5 2.4-3.5-0.1-10.2 0.3-20.4-0.2-30.6-0.5-10.5 7.4-18.3 15.8-20.9 2.8-0.8 5.9-1.3 8.8-1.3 12.6-0.2 25-0.2 37.6 0 8.9 0.1 16.2 3.7 21.1 11.3 1.9 2.9 2.6 6.1 2.6 9.6 0 10.7 0.1 21.5-0.1 32.2 0 1.8 0.6 2.6 2.2 3.3 10.2 4.2 20.4 8.3 30.5 12.6l0.3 0.8c0.5-0.6 0.8-1.4 1.4-2 7-7.5 14-14.9 21-22.3 6.9-7.3 16.6-8.9 25.3-3.9 1.7 1 3.3 2.3 4.7 3.7 8.9 8.9 17.9 17.7 26.8 26.6 6 6 8.4 13.1 5.4 21.2-1.2 3.2-3.3 6.1-5.8 8.6-7.2 7.4-14.8 14.5-22.3 21.7-1.2 1.1-1.3 1.9-0.6 3.3 4.2 9.5 8.2 19 12.2 28.5 0.7 1.8 1.6 2.3 3.6 2.3 10.2-0.1 20.4 0.3 30.6-0.2 10.5-0.4 18.2 7.2 20.8 15.5 0.9 2.9 1.4 6 1.4 9 0.2 12.5 0.1 24.9 0 37.4-0.1 9-3.6 16.3-11.3 21.3-2.9 1.9-6.1 2.6-9.6 2.6-10.7 0-21.3 0.1-32-0.1-2 0-2.8 0.6-3.5 2.4-3.3 8.1-6.5 16.2-9.9 24.2-0.8 2.1-2 4-3.3 6.5 0.5 0.4 1.2 0.6 1.7 1.2 7.5 7 14.9 14 22.3 21 8.5 8 9.7 19.9 1.8 28.4-9.5 10.3-19.4 20.2-29.6 29.8-8.6 7.9-19.8 7.1-28-1.3-7.4-7.5-14.7-15.1-21.9-22.7-1.1-1.2-1.9-1.3-3.3-0.6-9.5 4.2-19 8.2-28.5 12.2-1.8 0.7-2.3 1.6-2.3 3.6 0.1 10.2-0.3 20.4 0.2 30.6 0.4 10.5-7.2 18.2-15.5 20.8-2.9 0.9-6 1.4-9 1.4-12.6 0.2-25 0.2-37.6 0-8.9-0.1-16.2-3.7-21.1-11.3-1.9-2.9-2.6-6.1-2.6-9.6 0-10.7-0.1-21.3 0.1-32 0-2-0.6-2.8-2.4-3.5-8.4-3.3-16.7-6.8-25-10.3-2-0.9-3.7-1.9-5.6-2.8z m166-131.2c-0.1-49.9-40.5-90.3-90.4-90.3-49.9 0-90.7 40.7-90.5 90.7 0.1 49.9 40.8 90.3 90.8 90.2 49.7-0.1 90.2-40.8 90.1-90.6zM378.7 547.3V409c0-16.5-13.4-29.9-29.9-29.9s-29.9 13.4-29.9 29.9v139.3c-56.8 14.3-98.9 65.7-98.9 127 0 72.3 58.6 131 130.9 131 72.3 0 131-58.6 131-130.9v-0.1c0.1-62.8-44.2-115.3-103.2-128zM274.2 843.4c-93.1-41.2-135.3-150-94.1-243.2 18.5-41.9 52-75.4 93.9-94v-29.3c0.1-1 0.1-2.1 0.1-3.1V229.2c0-41.3 33.4-74.7 74.7-74.7s74.7 33.4 74.7 74.7v181.9c-0.1 0-0.2-0.1-0.3-0.1v95.1c49.1 21.7 84 62.2 100 109.3 17.3-27.8 40-51.7 66.9-70.3-18.9-35.1-45.3-65.6-77-89.5V229.1c0-90.8-73.6-164.3-164.4-164.3-90.8 0-164.3 73.6-164.3 164.4v226.3c-66.6 50-109.7 129.6-109.7 219.1 0 151.1 122.9 274 274 274 70.2 0 134.2-26.5 182.8-70-18.6-26.2-32-56.2-38.8-88.7-51 63.9-140.3 88-218.5 53.5z" /></svg>