<?xml version="1.0" standalone="no"?><!DOCTYPE svg PUBLIC "-//W3C//DTD SVG 1.1//EN" "http://www.w3.org/Graphics/SVG/1.1/DTD/svg11.dtd"><svg class="icon" width="200px" height="200.00px" viewBox="0 0 1024 1024" version="1.1" xmlns="http://www.w3.org/2000/svg"><path d="M769.294222 382.378667c-18.744889-23.566222-43.747556-41.244444-68.736-58.922667-6.257778 0-6.257778-5.888-12.515555-5.888 31.260444-17.678222 56.248889-47.146667 56.248889-82.488889 0-53.034667-56.234667-94.279111-124.970667-94.279111-12.515556 0-31.246222 0-43.747556 5.888-6.257778 0-12.515556 5.902222-12.515555 5.902222h-12.487111c0-5.902222-6.257778-17.678222-18.744889-23.580444C513.080889 111.36 488.078222 99.555556 469.333333 99.555556c-25.002667 0-43.747556 11.790222-62.492444 29.454222-12.501333 5.902222-25.002667 11.790222-31.246222 23.580444h-6.257778s-6.243556-5.902222-12.487111-5.902222c-12.501333-5.888-25.002667-11.776-43.747556-11.776-62.492444 0-124.984889 41.244444-124.984889 94.264889 0 35.356444 25.002667 64.824889 56.248889 82.488889 0 0-6.257778 5.902222-12.501333 5.902222-18.744889 17.664-43.747556 35.342222-62.492445 58.908444C100.636444 441.315556 56.888889 512 56.888889 594.488889 56.888889 818.389333 238.108444 924.444444 463.075556 924.444444h12.515555C694.300444 924.444444 881.777778 818.389333 881.777778 594.488889c-6.257778-76.600889-43.747556-153.187556-112.483556-212.110222zM588.074667 612.167111c12.487111 0 24.988444 11.790222 24.988444 23.566222 0 11.790222-12.501333 23.566222-24.988444 23.566223h-99.982223v88.391111c0 11.776-12.515556 23.566222-25.002666 23.566222-12.515556 0-18.759111-11.790222-18.759111-23.566222v-88.391111h-99.982223c-12.501333 0-24.988444-11.776-24.988444-23.566223 0-11.776 12.487111-23.566222 24.988444-23.566222h99.982223v-53.034667h-99.982223c-12.501333 0-24.988444-11.776-24.988444-23.566222 0-11.776 12.487111-23.566222 24.988444-23.566222h74.993778l-81.237333-76.600889c-12.501333-11.776-12.501333-23.566222 0-29.454222 6.257778-11.790222 24.988444-11.790222 31.246222 0L469.333333 494.321778l99.982223-94.264889c6.257778-5.902222 18.759111-5.902222 31.246222 5.888 12.515556 11.790222 12.515556 23.566222 0 29.454222L519.324444 512h74.993778c12.501333 0 25.002667 11.790222 25.002667 23.566222 0 11.790222-12.515556 23.566222-31.246222 23.566222h-99.982223v53.034667h99.982223z" fill="#3370FF" /><path d="M796.444444 1002.666667c125.681778 0 227.555556-101.873778 227.555556-227.555556s-101.873778-227.555556-227.555556-227.555555-227.555556 101.873778-227.555555 227.555555 101.873778 227.555556 227.555555 227.555556z" fill="#ADC9FF" /><path d="M828.444444 815.189333V690.346667a32 32 0 0 0-64 0v124.842666l-20.792888-20.807111a32 32 0 0 0-45.255112 45.255111l75.420445 75.434667a32 32 0 0 0 45.340444-0.085333l75.335111-75.349334a32 32 0 0 0-45.240888-45.255111l-20.807112 20.807111z" fill="#FFFFFF" /></svg>