<?xml version="1.0" standalone="no"?><!DOCTYPE svg PUBLIC "-//W3C//DTD SVG 1.1//EN" "http://www.w3.org/Graphics/SVG/1.1/DTD/svg11.dtd"><svg t="1782704646279" class="icon" viewBox="0 0 1024 1024" version="1.1" xmlns="http://www.w3.org/2000/svg" p-id="5863" xmlns:xlink="http://www.w3.org/1999/xlink" width="200" height="200"><path d="M413.482667 137.216L131.754667 219.434667a16.657067 16.657067 0 0 0-8.874667 6.144c-2.2784 3.037867-3.413333 6.4512-3.413333 10.24v168.541866c0 45.6192 7.0656 90.0352 21.1968 133.256534a426.752 426.752 0 0 0 59.767466 117.5296 427.229867 427.229867 0 0 0 92.6208 93.8496 425.984 425.984 0 0 0 119.7312 62.208 16.938667 16.938667 0 0 0 10.786134 0 426.026667 426.026667 0 0 0 119.697066-62.208 426.632533 426.632533 0 0 0 92.586667-93.832534 425.8304 425.8304 0 0 0 59.7504-117.504A425.898667 425.898667 0 0 0 716.8 404.437333v-168.618666c0-3.780267-1.134933-7.1936-3.413333-10.222934a16.657067 16.657067 0 0 0-8.874667-6.152533L423.057067 137.216a17.1776 17.1776 0 0 0-9.557334 0zM153.6 248.618667l264.669867-77.2352L682.666667 248.610133v155.818667c0 41.984-6.493867 82.8672-19.498667 122.624a392.832 392.832 0 0 1-54.997333 108.142933 392.311467 392.311467 0 0 1-85.239467 86.365867 391.176533 391.176533 0 0 1-104.763733 55.432533 391.6288 391.6288 0 0 1-104.797867-55.432533 392.763733 392.763733 0 0 1-85.239467-86.382933 392.183467 392.183467 0 0 1-55.0144-108.1856A391.765333 391.765333 0 0 1 153.6 404.3776V248.610133z m619.332267 50.961066a17.0752 17.0752 0 0 0 11.605333 21.162667l85.845333 25.105067V493.994667c0 40.004267-6.178133 78.933333-18.577066 116.804266a373.828267 373.828267 0 0 1-52.394667 103.031467 373.777067 373.777067 0 0 1-81.1776 82.261333 373.1456 373.1456 0 0 1-99.549867 52.718934 374.9888 374.9888 0 0 1-72.1664-34.261334 17.066667 17.066667 0 0 0-17.834666 29.115734 408.712533 408.712533 0 0 0 84.616533 39.364266 17.058133 17.058133 0 0 0 10.786133 0 407.1168 407.1168 0 0 0 114.466134-59.502933 407.7824 407.7824 0 0 0 88.5504-89.728 407.534933 407.534933 0 0 0 57.147733-112.384 407.1936 407.1936 0 0 0 20.266667-127.419733V333.056c0-3.7888-1.1264-7.210667-3.396267-10.24a16.708267 16.708267 0 0 0-8.8832-6.144l-98.133333-28.689067a17.083733 17.083733 0 0 0-21.162667 11.605334z" fill="#5A5A5A" p-id="5864"></path><path d="M562.517333 360.567467a17.066667 17.066667 0 1 1 24.132267 24.132266l-187.733333 187.733334c-3.336533 3.328-7.355733 5.000533-12.074667 5.000533a16.443733 16.443733 0 0 1-12.066133-5.000533L265.2672 462.933333a17.066667 17.066667 0 1 1 24.132267-24.1408l97.450666 97.450667 175.658667-175.6672z" fill="#388E3C" p-id="5865"></path></svg>